<?xml version="1.0" encoding="UTF-8"?>
<svg id="_圖層_1" xmlns="http://www.w3.org/2000/svg" xmlns:xlink="http://www.w3.org/1999/xlink" version="1.1" viewBox="0 0 164 53">
  <!-- Generator: Adobe Illustrator 29.1.0, SVG Export Plug-In . SVG Version: 2.1.0 Build 142)  -->
  <defs>
    <style>
      .st0 {
        fill: none;
      }

      .st1 {
        fill: url(#_未命名的渐变_2);
      }

      .st2 {
        fill: url(#_未命名的渐变_5);
      }

      .st3 {
        fill: url(#_未命名的渐变_4);
      }

      .st4 {
        fill: url(#_未命名的渐变_3);
      }

      .st5 {
        fill: url(#_未命名的渐变_6);
      }

      .st6 {
        fill: url(#_未命名的渐变);
      }

      .st7 {
        clip-path: url(#clippath-1);
      }

      .st8 {
        clip-path: url(#clippath-3);
      }

      .st9 {
        clip-path: url(#clippath-4);
      }

      .st10 {
        clip-path: url(#clippath-2);
      }

      .st11 {
        clip-path: url(#clippath-5);
      }

      .st12 {
        fill: #fff;
      }

      .st13 {
        clip-path: url(#clippath);
      }
    </style>
    <clipPath id="clippath">
      <path class="st0" d="M6.1,37c-.8-1.7-.4-4.4-.4-10.5,0-13.2-1.7-10.2,9.7-16.8.6-.3,7.1-4.1,7.6-4.4l-3.5,15.6,4,1c.7.3,1.1.7-.3,1.7l-17.2,13.5h0Z"/>
    </clipPath>
    <linearGradient id="_未命名的渐变" data-name="未命名的渐变" x1="26.7" y1="55.1" x2="-3.8" y2=".4" gradientTransform="translate(0 54) scale(1 -1)" gradientUnits="userSpaceOnUse">
      <stop offset="0" stop-color="#ec1c24"/>
      <stop offset="0" stop-color="#ed2821"/>
      <stop offset=".3" stop-color="#ef481c"/>
      <stop offset=".5" stop-color="#f47c13"/>
      <stop offset=".8" stop-color="#fac407"/>
      <stop offset="1" stop-color="#fff100"/>
    </linearGradient>
    <clipPath id="clippath-1">
      <path class="st0" d="M6.1,37c-.8-1.7-.4-4.4-.4-10.5,0-13.2-1.7-10.2,9.7-16.8.6-.3,7.1-4.1,7.6-4.4C11.7,26.4,6.1,37,6.1,37Z"/>
    </clipPath>
    <linearGradient id="_未命名的渐变_2" data-name="未命名的渐变 2" x1="26" y1="55.4" x2="-4.4" y2=".8" gradientTransform="translate(0 54) scale(1 -1)" gradientUnits="userSpaceOnUse">
      <stop offset="0" stop-color="#ec1c24"/>
      <stop offset=".2" stop-color="#f15919"/>
      <stop offset=".5" stop-color="#f7990e"/>
      <stop offset=".7" stop-color="#fbc906"/>
      <stop offset=".9" stop-color="#fee601"/>
      <stop offset="1" stop-color="#fff100"/>
    </linearGradient>
    <clipPath id="clippath-2">
      <path class="st0" d="M25.5,4.8c1.9.2,4,1.8,9.3,4.9,11.5,6.6,9.7,3.6,9.7,16.8v8.8l-11.8-10.8-2.9,2.9c-.6.5-1.1.6-1.3-1.1l-3-21.7h0Z"/>
    </clipPath>
    <linearGradient id="_未命名的渐变_3" data-name="未命名的渐变 3" x1="50.2" y1="14.1" x2="19.4" y2="56.9" gradientTransform="translate(0 54) scale(1 -1)" gradientUnits="userSpaceOnUse">
      <stop offset="0" stop-color="#300c50"/>
      <stop offset=".1" stop-color="#360d57"/>
      <stop offset=".3" stop-color="#49136c"/>
      <stop offset=".5" stop-color="#681b8e"/>
      <stop offset=".8" stop-color="#9327be"/>
      <stop offset="1" stop-color="#c735f7"/>
    </linearGradient>
    <clipPath id="clippath-3">
      <path class="st0" d="M25.5,4.8c1.9.2,4,1.8,9.3,4.9,11.5,6.6,9.7,3.6,9.7,16.8v8.8s-6.3-10.2-19-30.6h0Z"/>
    </clipPath>
    <linearGradient id="_未命名的渐变_4" data-name="未命名的渐变 4" x1="50.2" y1="14.1" x2="19.4" y2="56.9" gradientTransform="translate(0 54) scale(1 -1)" gradientUnits="userSpaceOnUse">
      <stop offset="0" stop-color="#300c50"/>
      <stop offset="0" stop-color="#3e1060"/>
      <stop offset=".3" stop-color="#6e1d95"/>
      <stop offset=".5" stop-color="#9527bf"/>
      <stop offset=".7" stop-color="#b02ede"/>
      <stop offset=".9" stop-color="#c133f0"/>
      <stop offset="1" stop-color="#c735f7"/>
    </linearGradient>
    <clipPath id="clippath-4">
      <path class="st0" d="M43.7,37.7c-1.1,1.5-3.6,2.5-8.9,5.6-11.5,6.6-8,6.6-19.4,0-.6-.3-7.2-4.1-7.6-4.4l15.3-4.8-1.1-4c-.1-.8,0-1.3,1.6-.6l20.3,8.2h0Z"/>
    </clipPath>
    <linearGradient id="_未命名的渐变_5" data-name="未命名的渐变 5" x1="-.4" y1="14.6" x2="50.4" y2="14.6" gradientTransform="translate(0 54) scale(1 -1)" gradientUnits="userSpaceOnUse">
      <stop offset="0" stop-color="#f0f"/>
      <stop offset=".3" stop-color="#fb2ef0"/>
      <stop offset="1" stop-color="#f3a2cb"/>
      <stop offset="1" stop-color="#f3aac9"/>
    </linearGradient>
    <clipPath id="clippath-5">
      <path class="st0" d="M43.7,37.7c-1.1,1.5-3.6,2.5-8.9,5.6-11.5,6.6-8,6.6-19.4,0-.6-.3-7.2-4.1-7.6-4.4l36-1.2Z"/>
    </clipPath>
    <linearGradient id="_未命名的渐变_6" data-name="未命名的渐变 6" x1="-.4" y1="10.2" x2="45.9" y2="10.2" gradientTransform="translate(0 54) scale(1 -1)" gradientUnits="userSpaceOnUse">
      <stop offset="0" stop-color="#f0f"/>
      <stop offset=".3" stop-color="#fa3aec"/>
      <stop offset=".5" stop-color="#f76add"/>
      <stop offset=".7" stop-color="#f58dd2"/>
      <stop offset=".9" stop-color="#f3a2cb"/>
      <stop offset="1" stop-color="#f3aac9"/>
    </linearGradient>
  </defs>
  <g>
    <g class="st13">
      <rect class="st6" x="4" y="5.2" width="20.7" height="31.8"/>
    </g>
    <g class="st7">
      <rect class="st1" x="4" y="5.2" width="19.1" height="31.8"/>
    </g>
    <g class="st10">
      <rect class="st4" x="25.5" y="4.8" width="20.8" height="30.6"/>
    </g>
    <g class="st8">
      <rect class="st3" x="25.5" y="4.8" width="20.8" height="30.6"/>
    </g>
    <g class="st9">
      <rect class="st2" x="7.7" y="28.8" width="36" height="21.1"/>
    </g>
    <g class="st11">
      <rect class="st5" x="7.7" y="37.7" width="36" height="12.2"/>
    </g>
  </g>
  <g>
    <g>
      <path class="st12" d="M59,39.9v-10.6h3.6c.7,0,1.4,0,2,.2s1,.4,1.4.8c.3.4.5.9.5,1.6s0,.6-.2.9c-.1.3-.3.6-.5.8-.2.2-.5.4-.7.5h0c.5.2,1,.5,1.4.9s.6,1,.6,1.7-.2,1.3-.5,1.8-.9.8-1.5,1-1.3.3-2.1.3h-3.9ZM61.3,33.6h1.1c.6,0,1-.1,1.3-.3.3-.2.4-.5.4-1s-.1-.7-.4-.9-.7-.3-1.3-.3h-1.2v2.5h0ZM61.3,38.1h1.4c.7,0,1.2-.1,1.5-.4.3-.2.5-.6.5-1.1s-.2-.8-.5-1-.8-.3-1.5-.3h-1.4v2.8h0Z"/>
      <path class="st12" d="M68.8,39.9v-10.6h6.6v1.9h-4.3v2.2h3.6v2h-3.6v2.5h4.4v2s-6.7,0-6.7,0Z"/>
      <path class="st12" d="M79.4,39.9v-3.8l-3.2-6.8h2.5l1,2.5c.1.4.3.8.4,1.2.1.4.3.8.5,1.2h0c.2-.4.3-.8.5-1.2.2-.4.3-.8.4-1.1l1-2.5h2.4l-3.2,6.8v3.8h-2.3Z"/>
      <path class="st12" d="M90,40.1c-.9,0-1.8-.2-2.5-.7s-1.3-1.1-1.7-1.9c-.4-.8-.6-1.8-.6-3s.2-2.1.6-2.9c.4-.8,1-1.4,1.7-1.9.7-.4,1.6-.6,2.5-.6s1.8.2,2.5.6,1.3,1,1.7,1.9.6,1.8.6,2.9-.2,2.1-.6,3-1,1.5-1.7,1.9-1.6.7-2.5.7ZM90,38.1c.5,0,.9-.1,1.3-.4s.6-.7.8-1.2.3-1.2.3-1.9,0-1.3-.3-1.8c-.2-.5-.5-.9-.8-1.2-.4-.3-.8-.4-1.3-.4s-.9.1-1.3.4c-.4.3-.6.7-.8,1.2-.2.5-.3,1.1-.3,1.8s0,1.3.3,1.9.5.9.8,1.2.8.4,1.3.4Z"/>
      <path class="st12" d="M96.8,39.9v-10.6h2.4l2.8,5.3,1.1,2.3h0c0-.6-.1-1.2-.2-1.9,0-.7-.1-1.3-.1-2v-3.9h2.2v10.6h-2.4l-2.8-5.4-1.1-2.3h0c0,.6.1,1.2.2,1.8s.1,1.3.1,1.9v3.9h-2.2Z"/>
      <path class="st12" d="M107.5,39.9v-10.6h3c1.1,0,2,.2,2.8.6.8.4,1.4,1,1.8,1.7.4.8.7,1.8.7,3s-.2,2.2-.6,3-1,1.4-1.8,1.8-1.7.6-2.7.6h-3.1ZM109.8,38h.5c.6,0,1.1-.1,1.6-.3s.8-.6,1.1-1.1.4-1.2.4-2-.1-1.5-.4-2c-.2-.5-.6-.8-1.1-1s-1-.3-1.6-.3h-.5s0,6.8,0,6.8Z"/>
      <path class="st12" d="M119.7,39.9l3.3-10.6h2.8l3.3,10.6h-2.4l-1.4-5.4c-.2-.5-.3-1.1-.4-1.7s-.3-1.2-.4-1.7h0c-.1.6-.3,1.1-.4,1.7s-.3,1.2-.4,1.7l-1.4,5.4h-2.4ZM121.9,37.3v-1.8h5.1v1.8h-5.1Z"/>
      <path class="st12" d="M130.3,39.9v-10.6h3.6c.8,0,1.5.1,2.1.3.6.2,1.1.6,1.5,1,.4.5.6,1.2.6,2s-.2,1.5-.6,2c-.4.5-.9.9-1.5,1.2-.6.2-1.3.4-2.1.4h-1.3v3.6s-2.3,0-2.3,0ZM132.6,34.5h1.2c.7,0,1.2-.2,1.5-.4.3-.3.5-.7.5-1.3s-.2-1-.5-1.2-.9-.3-1.5-.3h-1.1v3.3h0Z"/>
      <path class="st12" d="M139.9,39.9v-10.6h6.6v1.9h-4.3v2.2h3.6v2h-3.6v2.5h4.4v2h-6.7,0Z"/>
      <path class="st12" d="M147.7,39.9l2.9-5.4-2.8-5.1h2.6l.9,2c.1.2.2.5.4.8.1.3.3.6.4.9h0c.1-.3.2-.6.4-.9s.2-.5.3-.8l.9-2h2.5l-2.8,5.2,2.9,5.3h-2.6l-1.1-2.2c-.1-.3-.3-.5-.4-.8s-.3-.6-.4-.9h0c-.1.3-.3.6-.4.9-.1.3-.2.6-.4.8l-1,2.2h-2.5,0Z"/>
    </g>
    <g>
      <path class="st12" d="M61.5,47.6c-.5,0-.9-.1-1.3-.3-.4-.2-.7-.5-.9-1-.2-.4-.3-.9-.3-1.5s0-.8.2-1.2c.1-.3.3-.7.5-.9s.5-.4.8-.6c.3-.1.6-.2,1-.2s.7,0,1,.2c.3.1.5.3.6.5l-.4.5c-.1-.2-.3-.3-.5-.4-.2,0-.4-.2-.7-.2s-.7,0-1,.3c-.3.2-.5.4-.6.8s-.2.7-.2,1.2,0,.9.2,1.2.3.6.6.8c.3.2.6.3,1,.3s.4,0,.6,0,.3-.1.4-.2v-1.5h-1.2v-.6h1.8v2.3c-.2.2-.4.3-.7.5s-.6.2-1,.2h0Z"/>
      <path class="st12" d="M64.5,47.5v-5.5h.7v4.9h2.4v.6s-3.1,0-3.1,0Z"/>
      <path class="st12" d="M70.4,47.6c-.5,0-.9-.1-1.2-.3-.3-.2-.6-.6-.8-1s-.3-.9-.3-1.5,0-1.1.3-1.5c.2-.4.5-.8.8-1,.3-.2.8-.3,1.2-.3s.9.1,1.2.3c.3.2.6.5.8,1,.2.4.3.9.3,1.5s0,1.1-.3,1.5c-.2.4-.5.8-.8,1-.3.2-.8.3-1.2.3h0ZM70.4,47c.3,0,.6,0,.9-.3s.4-.5.6-.8.2-.7.2-1.2,0-.9-.2-1.2-.3-.6-.6-.8c-.2-.2-.5-.3-.9-.3s-.6,0-.9.3-.4.4-.6.8c-.1.3-.2.7-.2,1.2s0,.9.2,1.2c.1.3.3.6.6.8.2.2.5.3.9.3Z"/>
      <path class="st12" d="M73.9,47.5v-5.5h1.6c.4,0,.7,0,1,.1.3,0,.5.2.7.4.2.2.2.5.2.8s0,.3,0,.5c0,.2-.2.3-.3.4-.1.1-.3.2-.4.3h0c.3.1.6.2.8.5.2.2.3.5.3.9s0,.7-.3.9-.4.4-.7.5c-.3.1-.7.2-1.1.2h-1.8ZM74.6,44.3h.8c.5,0,.8,0,1-.2.2-.2.3-.4.3-.7s-.1-.6-.3-.7c-.2-.1-.5-.2-1-.2h-.8v1.8h0ZM74.6,46.9h1c.5,0,.8,0,1.1-.3.3-.2.4-.5.4-.8s-.1-.6-.4-.8-.6-.2-1.1-.2h-1s0,2.1,0,2.1Z"/>
      <path class="st12" d="M78.1,47.5l1.9-5.5h.8l1.9,5.5h-.7l-1-3.1c0-.3-.2-.6-.3-.9,0-.3-.2-.6-.3-.9h0c0,.3-.2.6-.3.9,0,.3-.2.6-.3.9l-1,3.1h-.7ZM79.1,45.8v-.5h2.6v.5h-2.6Z"/>
      <path class="st12" d="M83.5,47.5v-5.5h.7v4.9h2.4v.6h-3.1Z"/>
      <path class="st12" d="M90.2,47.5l-1.8-5.5h.7l.9,3c0,.3.2.6.3.9,0,.3.2.6.3.9h0c.1-.3.2-.6.3-.9,0-.3.2-.6.3-.9l.9-3h.7l-1.8,5.5h-.8Z"/>
      <path class="st12" d="M93.6,47.5v-5.5h3.2v.6h-2.5v1.7h2.1v.6h-2.1v2h2.6v.6s-3.3,0-3.3,0Z"/>
      <path class="st12" d="M98,47.5v-5.5h.7l2,3.5.6,1.1h0c0-.3,0-.6,0-.9,0-.3,0-.6,0-.9v-2.9h.7v5.5h-.7l-2-3.5-.6-1.1h0c0,.3,0,.6,0,.8,0,.3,0,.6,0,.9v2.9h-.7,0Z"/>
      <path class="st12" d="M104.6,47.5v-4.9h-1.7v-.6h4.1v.6h-1.7v4.9h-.7Z"/>
      <path class="st12" d="M109.9,47.6c-.3,0-.5,0-.8-.1s-.4-.2-.6-.4c-.2-.2-.3-.4-.4-.7s-.2-.7-.2-1.1v-3.2h.7v3.3c0,.4,0,.8.2,1s.3.4.5.5.4.2.7.2.5,0,.7-.2c.2-.1.3-.3.5-.5s.2-.6.2-1v-3.3h.7v3.2c0,.4,0,.8-.2,1.1,0,.3-.2.5-.4.7s-.4.3-.6.4-.5.1-.8.1h0Z"/>
      <path class="st12" d="M113.4,47.5v-5.5h1.7c.4,0,.7,0,1,.2.3,0,.5.3.7.5.2.2.2.5.2.9s0,.7-.2.9c-.2.2-.4.4-.7.5-.3.1-.6.2-1,.2h-1v2.3h-.7ZM114.1,44.6h.9c.4,0,.8,0,1-.3.2-.2.3-.5.3-.8s-.1-.6-.3-.8c-.2-.2-.6-.2-1-.2h-.9v2.1ZM116.4,47.5l-1.4-2.5.6-.4,1.7,2.9h-.8Z"/>
      <path class="st12" d="M118.2,47.5v-5.5h3.2v.6h-2.5v1.7h2.1v.6h-2.1v2h2.6v.6s-3.3,0-3.3,0Z"/>
      <path class="st12" d="M124.1,47.6c-.4,0-.8,0-1.1-.2s-.6-.3-.8-.6l.4-.5c.2.2.4.4.7.5.3.1.5.2.8.2s.7,0,.9-.2c.2-.2.3-.4.3-.7s0-.3-.1-.5-.2-.2-.3-.3-.3-.2-.5-.2l-.8-.3c-.2,0-.3-.2-.5-.3-.2-.1-.3-.3-.4-.5s-.2-.4-.2-.7,0-.5.2-.8c.2-.2.4-.4.6-.5s.6-.2.9-.2.6,0,.9.2c.3.1.5.3.7.5l-.4.4c-.2-.2-.4-.3-.6-.4s-.4-.1-.7-.1-.6,0-.8.2-.3.3-.3.6,0,.3.1.4c0,.1.2.2.3.3s.3.1.4.2l.8.3c.2,0,.4.2.6.3.2.1.3.3.4.5,0,.2.2.4.2.7s0,.6-.2.8c-.2.2-.4.4-.7.6-.3.1-.6.2-1,.2h0Z"/>
      <path class="st12" d="M128.8,47.5v-5.5h.7v4.9h2.4v.6h-3.1Z"/>
      <path class="st12" d="M132.9,47.5v-5.5h.7v5.5h-.7Z"/>
      <path class="st12" d="M135.1,47.5v-5.5h.8l1.1,3c0,.2.1.4.2.6,0,.2.1.4.2.6h0c0-.2.1-.4.2-.6s.1-.4.2-.6l1.1-3h.8v5.5h-.6v-3.1c0-.2,0-.3,0-.5s0-.4,0-.6c0-.2,0-.4,0-.5h0l-.4,1.3-1,2.9h-.5l-1.1-2.9-.4-1.3h0c0,.2,0,.3,0,.5s0,.4,0,.6,0,.4,0,.5v3.1h-.6Z"/>
      <path class="st12" d="M141.2,47.5v-5.5h.7v5.5h-.7Z"/>
      <path class="st12" d="M144.6,47.5v-4.9h-1.7v-.6h4.1v.6h-1.7v4.9h-.7Z"/>
      <path class="st12" d="M147.9,47.5v-5.5h3.2v.6h-2.5v1.7h2.1v.6h-2.1v2h2.6v.6s-3.3,0-3.3,0Z"/>
      <path class="st12" d="M152.4,47.5v-5.5h1.4c.6,0,1,.1,1.4.3s.7.5.9.9c.2.4.3.9.3,1.5s-.1,1.1-.3,1.5c-.2.4-.5.7-.9,1-.4.2-.9.3-1.4.3h-1.4,0ZM153.1,46.9h.6c.4,0,.8,0,1.1-.3.3-.2.5-.4.6-.8.1-.3.2-.7.2-1.2s0-.9-.2-1.2-.4-.6-.6-.7c-.3-.2-.6-.2-1.1-.2h-.6s0,4.4,0,4.4Z"/>
    </g>
    <g>
      <path class="st12" d="M65.3,20.5c.4.2.8.3,1.2.4,1.4.3,3.4.4,5.1.4,2.1,0,4.1,0,6.6-.2l-1.2,2.6c0,.2-.1.2-.4.2-1.6,0-3.7,0-5.2,0-1.8,0-4.1-.1-5.7-.6-1.9-.5-3-1.4-3.9-2.7-.2,1.1-.4,2-.9,3.1,0,0-.1.1-.2.1s0,0-.2,0l-1.7-1.6c.8-1.8,1-4.1,1-7h.2c0-.1,1.9.3,1.9.3h.2c0,.8,0,1.4,0,1.9.2.4.4.7.6,1v-4.2h-3.4c0,0-.1,0-.1,0v-2.2h.1c0-.1,2.3,0,2.3,0h.9v-1.6h-2.5c0,0-.1,0-.1,0v-2.2h.1c0-.1,2.3,0,2.3,0h.2v-2.4h.1c0-.1,2.4-.1,2.4-.1v.2c.1,0,.1,2.4.1,2.4h2.2c0,0,.1,0,.1,0v2.2h-.1c0,.1-2.2,0-2.2,0v1.6h2.5c0,0,0,0,0,0h0c1.7-.8,2.6-1.7,2.8-3.4h-2.3c0,0-.1,0-.1,0v-2.1h.1c0-.1,2.6,0,2.6,0h6.6s.1,0,.1,0c0,4.4-.3,5.8-.8,6.4-.5.5-1,.7-2.2.7h-.7c-.2,0-.3,0-.4-.3l-.8-2.1c.3,0,.5,0,.7,0s.4,0,.7,0c.2,0,.5,0,.5-.2.2-.4.2-1.1.3-2.4h-1.5c-.2,2.2-1.5,4.4-3.6,5.2,0,0-.2,0-.2,0-.1,0-.2,0-.3-.1l-1.4-1.7v2.2h-.1c0,.1-2.4,0-2.4,0h0v1.9h2.4c0,0,.1,0,.1,0v2.2h-.1c0,.1-2,0-2,0h-.4v2.2h0ZM71.2,20.1v.7h-2.6v-3.9c0,0,0-.8,0-.8v-2.2c0,0,0-.1,0-.1h2.9c0,0,2.6,0,2.6,0h2.7c0,0,.2,0,.2,0v2.2c0,0,0,.6,0,.6v3.9c0,0-2.7,0-2.7,0v-.6h-3.2ZM74.4,16h-3.2v2h3.2v-2Z"/>
      <path class="st12" d="M91,19.4h-2.8c0,0-.1,0-.1,0v-1.8h.1c0-.1,2.5,0,2.5,0h.3v-.6h-3.3c0,0-.1,0-.1,0v-1.8h.1c0-.1,2.6,0,2.6,0h.7v-1h.1c0-.1,2.2-.1,2.2-.1v.2c.1,0,.1,1,.1,1h2.9c0,0,.1,0,.1,0v1.9h-.1c0,.1-2.5,0-2.5,0h-.4v.6h2.6c0,0,.1,0,.1,0v1.8h-.1c0,.1-2.4,0-2.4,0h-.2v.6h4.3c0,0,.1,0,.1,0v2h-.1c0,.1-2.5,0-2.5,0h-1.8v2.2s-2.6,0-2.6,0v-2.2s-1.8,0-1.8,0h-2.6c0,0-.1,0-.1,0v-.8h-1.9v-1h-3.2v1.6h-2v-5.8c0,0,0-6.6,0-6.6h.1c0-.1,1.6-.1,1.6-.1h.1v8.7h.6V6h.1c0-.1,1.8-.1,1.8-.1h.1v12.1h.6v-8.5h.1c0-.1,1.7-.1,1.7-.1h.1v.6c1.6-1.1,2.8-2.8,3.6-4.4h.2c0,0,2,.5,2,.5v.2c-.1.3-.3.6-.5,1h3.4c0,0,1.3.9,1.3.9,0,0,.2.1.2.2s0,.2-.2.3c-.7,1-1.4,1.8-2.3,2.6,1.2.6,2.5,1,4,1.4l-1.1,1.8c-.1.2-.2.3-.4.3s-.2,0-.3,0c-1.6-.5-3-1.2-4.2-2-1.2.8-2.6,1.4-4,1.9-.2,0-.3.1-.4.1-.2,0-.2,0-.4-.2l-1.1-1.4v6.8c0,0,2.7,0,2.7,0h1.9v-.6h0ZM86.5,12.9c1.4-.4,2.7-.9,4-1.5-.4-.3-.7-.7-1.1-1.1-.4.4-.8.8-1.1,1.1-.1.1-.2.2-.3.2s-.2,0-.3-.2l-1.2-1.2v2.7h0ZM91.1,9c.4.4.8.8,1.2,1.1.4-.4.8-.7,1-1.1h-2.3Z"/>
      <path class="st12" d="M99.1,8.9h-.1v-2.3h.1c0-.1,2.1,0,2.1,0h4c0,0,.1,0,.1,0v2.2h-.1c0,.1-1.8,0-1.8,0v2.9h1.4s.1,0,.1,0v2.2h-.1c0,0-1.4,0-1.4,0v3.5c.8-.2,1.5-.5,2.2-.7v2c0,.4,0,.5-.4.6-1.3.5-3.6,1.2-5.5,1.8h-.2c0-.1-.8-2.4-.8-2.4v-.2c.8-.1,1.5-.3,2.2-.5v-4.2h-1.6s-.1,0-.1,0v-2.2h.1c0-.1,1.6,0,1.6,0v-2.9h-1.8c0,0,0,0,0,0ZM112.3,24.4h-2.8v-2.8c-1.2,1-2.6,1.7-4.1,2.3-.1,0-.2,0-.3,0,0,0-.2,0-.2-.1l-1.6-1.9c2.9-.9,4.6-1.8,6.1-3.3h-2.9c0,0-.1,0-.1,0v-1.8c0,0,0-1.1,0-1.1v-1.3c0,0,0-.1,0-.1h2.5c0,0,4.6,0,4.6,0h2.5c0,0,.1,0,.1,0v1.3c0,0,0,1.1,0,1.1v1.8c0,0,0,.1,0,.1h-.2l1.3.9v.2c-.4.4-1,.8-1.5,1.2.7.3,1.4.6,2.2.8l-1.3,1.9c-.2.2-.2.3-.3.3s0,0-.2,0c-1.6-.7-2.9-1.4-3.9-2.4v3c0,0,.1,0,.1,0ZM105.4,13.8h-.1v-2h.1c0-.1,2.8,0,2.8,0h9.5c0,0,.1,0,.1,0v1.9h-.1c0,.1-2.9,0-2.9,0h-9.3ZM105.9,11.1h-.1c0-.1,0-1.7,0-1.7v-2.9c0,0,0-.1,0-.1h2.9c0,0,4.9,0,4.9,0h2.9c0,0,.1,0,.1,0v1.6c0,0,0,1.3,0,1.3v1.6c0,0,0,.1,0,.1h-2.9c0,0-4.9,0-4.9,0h-2.9ZM108.8,8h-.8v1.4h.8v-1.4ZM113.6,16.9v-.9h-4.9v.9h4.9ZM111.6,9.3v-1.3h-.8v1.3h.8ZM112.4,18.6c.5.4.9.9,1.5,1.2.4-.4.8-.8,1.2-1.2h-1.5s-1.2,0-1.2,0ZM114.4,9.3v-1.3h-.8v1.3h.8Z"/>
      <path class="st12" d="M119,9.1h-.1v-2.3h.1c0-.1,2.3,0,2.3,0h4.3c0,0,.1,0,.1,0v1.9h2.1s2,0,2,0v-2.9l.2-.2h2.6v3.1h2c-.5-.8-1-1.3-1.5-1.7v-.2l1.5-1.1h.2c.7.4,1.2,1,1.8,1.7v.2l-1.4,1.1h2.2c0,0,.1,0,.1,0v2.2h-.1c0,.1-2.6,0-2.6,0h-2.1v2.6c1.3,2.4,2.9,4,5.2,5.5l-1.5,2.1c0,.1-.2.2-.3.2s-.2,0-.3-.2c-1.2-1-2.2-2.3-3.1-3.7v3.6c.1,2.3-.7,3-3.8,3s-.4,0-.5-.2l-1.1-2.5c.9,0,1.8,0,2.1,0,.4,0,.5-.2.5-.6v-9.8h-4.5c0,0-.1,0-.1,0v-2h-1.5s0,3.1,0,3.1h1.7s.1,0,.1,0v.8l1.6-1.2h.2c.7.5,1.6,1.5,2.3,2.4v.2s-1.8,1.5-1.8,1.5h-.2c-.7-1.1-1.3-1.9-2-2.6v1.1h-.1c0,.1-1.7,0-1.7,0v3.5c.7-.2,1.3-.4,1.8-.5v1c1.2-.6,2.5-1.3,3.8-2.2l.3,2.1c0,.3,0,.4-.2.6-.9.7-2.2,1.6-3.6,2.4h-.2l-.7-1.2c-1.4.5-3.4,1.1-5.2,1.6h-.2c0-.1-.8-2.4-.8-2.4v-.2c.9-.2,1.7-.3,2.4-.5v-4.2h-1.8s-.1,0-.1,0v-2.2h.1c0-.1,1.8,0,1.8,0v-3.1h-2c0,0,0,0,0,0ZM137.2,13.1c-.6,1-1.2,1.7-1.9,2.6,0,.1-.2.2-.3.2s-.2,0-.3-.1l-1.6-1.1c.8-1.1,1.4-1.9,1.8-2.8h.2s2,1.2,2,1.2v.2s0,0,0,0Z"/>
    </g>
  </g>
</svg>